<?xml version="1.0" encoding="UTF-8"?>
<svg version="1.1" xmlns="http://www.w3.org/2000/svg" width="327" height="154">
<path d="M0 0 C7.82859905 -0.12711385 15.65693047 -0.21448391 23.48632812 -0.2746582 C26.14828017 -0.2969221 28.80887845 -0.33382641 31.47070312 -0.37719727 C35.30355786 -0.43807033 39.13549888 -0.46626278 42.96875 -0.48828125 C44.15239136 -0.51408768 45.33603271 -0.5398941 46.55554199 -0.56648254 C53.61276132 -0.568861 58.64266242 0.16143676 64 5 C68.53491118 10.81398869 69.78703951 15.7667321 69 23 C68.443125 23.99 67.88625 24.98 67.3125 26 C65.5485152 30.03196526 66.68277811 31.750263 68.21484375 35.703125 C69.87388486 40.55643928 69.37914233 44.70645559 67.9375 49.625 C65.30222547 54.21547821 61.76043137 57.61978431 57 60 C55.1820546 60.0909215 53.36074055 60.11753467 51.54052734 60.11352539 C50.39949554 60.11344986 49.25846375 60.11337433 48.08285522 60.11329651 C46.84637238 60.10813522 45.60988953 60.10297394 44.3359375 60.09765625 C43.07359283 60.0962413 41.81124817 60.09482635 40.51065063 60.09336853 C37.15361701 60.08871078 33.796651 60.07972408 30.43963623 60.06866455 C27.01445094 60.0584377 23.58925866 60.05386818 20.1640625 60.04882812 C13.44268957 60.03778238 6.72134869 60.02103194 0 60 C-1.50076427 56.99847145 -1.14221592 53.9117999 -1.1328125 50.62109375 C-1.13424759 49.53019188 -1.13424759 49.53019188 -1.13571167 48.41725159 C-1.13639235 46.87981072 -1.13454585 45.34236699 -1.13037109 43.80493164 C-1.12501351 41.443457 -1.13032377 39.08217189 -1.13671875 36.72070312 C-1.1360581 35.22916624 -1.13477721 33.73762948 -1.1328125 32.24609375 C-1.13483673 31.53569443 -1.13686096 30.8252951 -1.13894653 30.09336853 C-1.11495714 25.11495714 -1.11495714 25.11495714 0 24 C1.62579218 23.87718048 3.25677004 23.82217496 4.88696289 23.79467773 C6.44846825 23.7647599 6.44846825 23.7647599 8.04151917 23.73423767 C9.1737944 23.71752518 10.30606964 23.70081268 11.47265625 23.68359375 C12.62543564 23.66281265 13.77821503 23.64203156 14.96592712 23.62062073 C18.66472157 23.55500036 22.36358959 23.49618245 26.0625 23.4375 C28.56315879 23.39432665 31.06381001 23.35071276 33.56445312 23.30664062 C39.70955662 23.19930632 45.85473404 23.09756357 52 23 C52 20.03 52 17.06 52 14 C34.84 13.67 17.68 13.34 0 13 C-1.06671952 9.79984144 -0.94845472 8.11455706 -0.5625 4.8125 C-0.46066406 3.91144531 -0.35882813 3.01039062 -0.25390625 2.08203125 C-0.17011719 1.39496094 -0.08632813 0.70789062 0 0 Z M15 37 C15 40.3 15 43.6 15 47 C19.92957259 47.07414321 24.85882081 47.12859817 29.78881836 47.16479492 C31.4659592 47.17988384 33.14306057 47.20035748 34.82006836 47.22631836 C37.23040504 47.26269811 39.64022019 47.27972486 42.05078125 47.29296875 C43.17592888 47.31619453 43.17592888 47.31619453 44.32380676 47.33988953 C48.39151679 47.35952397 48.39151679 47.35952397 51.97729492 45.6418457 C53.42664346 43.31506869 53.34410203 41.6839958 53 39 C51.05335478 36.61316495 51.05335478 36.61316495 47.46826172 36.77294922 C45.95536669 36.77326637 44.44244912 36.78459367 42.9296875 36.8046875 C41.73534592 36.80893234 41.73534592 36.80893234 40.51687622 36.81326294 C37.96943237 36.8244736 35.42233789 36.84957938 32.875 36.875 C31.14974465 36.88502867 29.42448381 36.89415472 27.69921875 36.90234375 C23.46601086 36.92441578 19.2330647 36.95895133 15 37 Z " fill="#fff" transform="translate(39,55)"/>
<path d="M0 0 C1.08139755 -0.00953201 2.1627951 -0.01906403 3.27696228 -0.02888489 C4.43539139 -0.02797348 5.5938205 -0.02706207 6.78735352 -0.02612305 C7.98683121 -0.03040817 9.1863089 -0.0346933 10.4221344 -0.03910828 C12.95638397 -0.04484604 15.49065 -0.04535592 18.02490234 -0.04101562 C21.89847958 -0.0378563 25.77129257 -0.06132087 29.64477539 -0.08666992 C32.10896714 -0.08894304 34.57316093 -0.08964635 37.03735352 -0.08862305 C38.19375839 -0.09783279 39.35016327 -0.10704254 40.54161072 -0.11653137 C47.25688036 -0.07796421 51.91606065 0.40470614 57.30688477 4.74731445 C65.44537864 13.84722381 64.02827355 26.78598628 63.47875977 38.2746582 C62.5988737 50.45674272 62.5988737 50.45674272 59.22875977 54.8996582 C52.32941088 60.85818679 46.18886302 60.72938036 37.41625977 60.70825195 C36.15160889 60.7134938 34.88695801 60.71873566 33.58398438 60.72413635 C30.91415095 60.73055066 28.24517524 60.73067276 25.57543945 60.72070312 C22.16572211 60.70920649 18.75703939 60.72944604 15.34745789 60.75862026 C12.07872039 60.78144449 8.81005824 60.77451335 5.54125977 60.77075195 C3.71292603 60.78760292 3.71292603 60.78760292 1.84765625 60.80479431 C-5.84288446 60.74158634 -9.61927507 60.06540345 -15.16577148 54.67700195 C-20.4785583 48.01380779 -19.77371064 41.53481954 -19.81640625 33.38867188 C-19.82789553 31.86318667 -19.84829906 30.33774069 -19.87792969 28.8125 C-20.18404272 13.04682372 -20.18404272 13.04682372 -15.52124023 6.2746582 C-10.90261344 1.77445773 -6.40179068 0.03111776 0 0 Z M-2.08007812 14.93457031 C-3.89727093 17.88523829 -4.02347637 19.75533087 -4.01733398 23.2121582 C-4.01797852 24.35426758 -4.01862305 25.49637695 -4.01928711 26.6730957 C-3.99930664 27.86161133 -3.97932617 29.05012695 -3.95874023 30.2746582 C-3.96583008 31.46317383 -3.97291992 32.65168945 -3.98022461 33.8762207 C-4.04126313 39.86713922 -4.04126313 39.86713922 -2.60742188 45.61474609 C0.92363604 48.42430288 4.92034873 47.82312532 9.29125977 47.77075195 C10.25652588 47.77220718 11.22179199 47.77366241 12.21630859 47.77516174 C14.25727354 47.77350163 16.29825085 47.76192789 18.33911133 47.74121094 C21.46692972 47.71226767 24.59305276 47.72059738 27.72094727 47.73364258 C29.70272636 47.72740496 31.68450008 47.71901385 33.66625977 47.70825195 C35.07258667 47.71265541 35.07258667 47.71265541 36.50732422 47.71714783 C37.37832764 47.70446365 38.24933105 47.69177948 39.14672852 47.67871094 C39.91267334 47.67330795 40.67861816 47.66790497 41.46777344 47.66233826 C44.02672718 47.16902047 44.91800005 46.3320742 46.47875977 44.2746582 C47.13310931 39.63767245 46.94183464 34.95253437 46.91625977 30.2746582 C46.93624023 28.97786133 46.9562207 27.68106445 46.97680664 26.3449707 C46.97616211 25.10489258 46.97551758 23.86481445 46.97485352 22.5871582 C46.97670654 21.44891602 46.97855957 20.31067383 46.98046875 19.13793945 C46.70690427 16.27096265 46.70690427 16.27096265 45.03759766 14.40722656 C41.09276167 12.66120098 37.31015394 12.82691216 33.04125977 12.84106445 C32.12417236 12.8358226 31.20708496 12.83058075 30.26220703 12.82518005 C28.3256125 12.81876415 26.38897898 12.82009127 24.45239258 12.82861328 C21.48912257 12.83712842 18.52777712 12.80834807 15.56469727 12.77661133 C13.68188534 12.77499933 11.79907001 12.77557682 9.91625977 12.77856445 C9.03075439 12.76733047 8.14524902 12.7560965 7.23291016 12.74452209 C3.42529814 12.7876788 1.16306841 12.8307488 -2.08007812 14.93457031 Z " fill="#fff" transform="translate(225.521240234375,54.725341796875)"/>
<path d="M0 0 C7.82873877 -0.09911726 15.65710959 -0.17158823 23.48632812 -0.21972656 C26.14810247 -0.23753649 28.80901028 -0.26706285 31.47070312 -0.30175781 C35.3034958 -0.35045548 39.13570363 -0.37301116 42.96875 -0.390625 C44.74421204 -0.42159271 44.74421204 -0.42159271 46.55554199 -0.45318604 C53.5363403 -0.45506819 58.07416027 0.22475061 64 4 C68.21309372 8.21309372 69.75757102 12.43025279 70.3125 18.3125 C69.98329894 22.19707246 68.9815253 24.98656859 67.36328125 28.49609375 C66.89571111 31.71880838 68.05341113 33.74652817 69.27270508 36.68774414 C70.64041595 41.03604548 70.30890376 45.48627058 70.1875 50 C70.16719727 51.44826172 70.16719727 51.44826172 70.14648438 52.92578125 C70.11145985 55.28409958 70.05766538 57.64212664 70 60 C64.72 60 59.44 60 54 60 C53.34 52.74 52.68 45.48 52 38 C48.41335391 36.8044513 45.56189362 36.90403925 41.77734375 36.9375 C40.72541588 36.94317993 40.72541588 36.94317993 39.65223694 36.94897461 C37.4139287 36.96118325 35.17574969 36.97981611 32.9375 37 C29.98828478 37.02653251 27.03913305 37.04655343 24.08984375 37.0625 C22.12325806 37.07990234 22.12325806 37.07990234 20.11694336 37.09765625 C17 37 17 37 15 36 C15 43.92 15 51.84 15 60 C10.05 60 5.1 60 0 60 C-0.02465098 55.03377651 -0.04283649 50.06758834 -0.05493164 45.10131836 C-0.0599719 43.41055684 -0.06680405 41.71979971 -0.07543945 40.02905273 C-0.08751857 37.60399293 -0.09323123 35.17899056 -0.09765625 32.75390625 C-0.10281754 31.99348526 -0.10797882 31.23306427 -0.11329651 30.44960022 C-0.11349238 28.6326743 -0.06197277 26.81586873 0 25 C1.62279171 23.37720829 3.42953069 23.85065098 5.67163086 23.82641602 C7.16339088 23.80618126 7.16339088 23.80618126 8.68528748 23.78553772 C9.76754105 23.77509933 10.84979462 23.76466095 11.96484375 23.75390625 C14.23112374 23.7209735 16.49739968 23.68776176 18.76367188 23.65429688 C22.35633606 23.60680155 25.94898319 23.56237477 29.54174805 23.52319336 C32.9954556 23.48361543 36.44882197 23.43203929 39.90234375 23.37890625 C40.98257309 23.3704921 42.06280243 23.36207794 43.17576599 23.35340881 C44.17342484 23.33676682 45.17108368 23.32012482 46.19897461 23.30297852 C47.07976181 23.29267105 47.96054901 23.28236359 48.86802673 23.27174377 C51.21433303 23.19368468 51.21433303 23.19368468 53 21 C53.33333333 18.5 53.33333333 18.5 53 16 C50.47695087 13.47695087 49.58668674 13.73280818 46.09130859 13.68115234 C45.07040131 13.66128265 44.04949402 13.64141296 42.99765015 13.62094116 C41.89240997 13.60938995 40.7871698 13.59783875 39.6484375 13.5859375 C37.95468491 13.55688828 37.95468491 13.55688828 36.22671509 13.5272522 C32.60955428 13.46732931 28.99236187 13.42101998 25.375 13.375 C22.92706922 13.33683195 20.47915204 13.29778092 18.03125 13.2578125 C12.02094338 13.16161724 6.01057389 13.07763316 0 13 C0 8.71 0 4.42 0 0 Z " fill="#fff" transform="translate(131,55)"/>
<path d="M0 0 C1.19523285 -0.00145523 2.3904657 -0.00291046 3.62191772 -0.00440979 C6.13826953 -0.00275577 8.65463198 0.00874942 11.17089844 0.02954102 C15.01801531 0.05855286 18.86375767 0.05012652 22.7109375 0.03710938 C25.16146501 0.04334565 27.61198819 0.05173572 30.0625 0.0625 C31.78299057 0.05809654 31.78299057 0.05809654 33.53823853 0.05360413 C43.63248556 0.17272326 43.63248556 0.17272326 48.3984375 3.49609375 C48.8934375 4.48609375 48.8934375 4.48609375 49.3984375 5.49609375 C48.62109375 7.66015625 48.62109375 7.66015625 47.4609375 10.12109375 C47.08066406 10.93835938 46.70039063 11.755625 46.30859375 12.59765625 C46.00824219 13.22414063 45.70789063 13.850625 45.3984375 14.49609375 C44.7384375 14.49609375 44.0784375 14.49609375 43.3984375 14.49609375 C43.3984375 15.48609375 43.3984375 16.47609375 43.3984375 17.49609375 C43.0684375 17.16609375 42.7384375 16.83609375 42.3984375 16.49609375 C42.0684375 25.73609375 41.7384375 34.97609375 41.3984375 44.49609375 C41.0684375 44.49609375 40.7384375 44.49609375 40.3984375 44.49609375 C40.3984375 35.25609375 40.3984375 26.01609375 40.3984375 16.49609375 C37.9234375 15.50609375 37.9234375 15.50609375 35.3984375 14.49609375 C35.3984375 13.83609375 35.3984375 13.17609375 35.3984375 12.49609375 C34.82880783 12.50862183 34.25917816 12.5211499 33.67228699 12.53405762 C27.75150393 12.66421147 21.83071101 12.79390904 15.90991211 12.92333984 C13.69929756 12.97172494 11.48868556 13.02022698 9.27807617 13.06884766 C6.10335949 13.13865296 2.92863391 13.2080398 -0.24609375 13.27734375 C-1.23680374 13.29921753 -2.22751373 13.32109131 -3.24824524 13.34362793 C-4.16897324 13.36364868 -5.08970123 13.38366943 -6.03833008 13.40429688 C-7.25411491 13.43094421 -7.25411491 13.43094421 -8.49446106 13.45812988 C-13.50315625 13.54837207 -13.50315625 13.54837207 -15.6015625 12.43359375 C-17.72953542 11.15598218 -17.72953542 11.15598218 -20.6015625 12.49609375 C-20.2715625 11.17609375 -19.9415625 9.85609375 -19.6015625 8.49609375 C-20.2615625 8.49609375 -20.9215625 8.49609375 -21.6015625 8.49609375 C-21.3062439 6.63478088 -21.3062439 6.63478088 -20.6015625 4.49609375 C-13.91833793 -0.0322966 -7.90001291 -0.07764902 0 0 Z " fill="#fff" transform="translate(232.6015625,54.50390625)"/>
<path d="M0 0 C4.62 0 9.24 0 14 0 C14 11.88 14 23.76 14 36 C9.38 36 4.76 36 0 36 C0 24.12 0 12.24 0 0 Z " fill="#fff" transform="translate(112,79)"/>
<path d="M0 0 C16.81430309 -1.06784385 16.81430309 -1.06784385 21.90234375 1.41796875 C23.84471962 3.16647985 25.42237054 4.92181955 27 7 C28.2375 8.1446875 28.2375 8.1446875 29.5 9.3125 C31 11 31 11 31 13 C13.85670208 14.77529968 13.85670208 14.77529968 8.06640625 10.62109375 C5.0259623 8.00517288 2.41032652 5.20414663 0 2 C0 1.34 0 0.68 0 0 Z " fill="#fff" transform="translate(226,38)"/>
<path d="M0 0 C4.62 0 9.24 0 14 0 C14 4.29 14 8.58 14 13 C9.38 13 4.76 13 0 13 C0 8.71 0 4.42 0 0 Z " fill="#fff" transform="translate(112,55)"/>
<path d="M0 0 C0.33 0.66 0.66 1.32 1 2 C1.66 2 2.32 2 3 2 C3 2.99 3 3.98 3 5 C3.99 4.67 4.98 4.34 6 4 C8.6875 5.4375 8.6875 5.4375 11 7 C11.33 6.67 11.66 6.34 12 6 C13.44289787 5.90704185 14.89029785 5.88253487 16.33618164 5.88647461 C17.71750023 5.88658791 17.71750023 5.88658791 19.12672424 5.88670349 C20.12775681 5.89186478 21.12878937 5.89702606 22.16015625 5.90234375 C23.17975937 5.9037587 24.19936249 5.90517365 25.24986267 5.90663147 C28.52077107 5.91224903 31.79161213 5.9248045 35.0625 5.9375 C37.27408756 5.94251274 39.48567618 5.94707604 41.69726562 5.95117188 C47.13153357 5.96222416 52.56576197 5.97897937 58 6 C58 6.33 58 6.66 58 7 C56.11510864 7.02187378 56.11510864 7.02187378 54.19213867 7.04418945 C49.53462108 7.10211604 44.87758984 7.17934911 40.22045898 7.26245117 C38.20393765 7.2957271 36.18732258 7.32375068 34.1706543 7.34643555 C31.273519 7.37993256 28.37724482 7.43224544 25.48046875 7.48828125 C24.57725388 7.49467117 23.674039 7.5010611 22.74345398 7.50764465 C21.90280899 7.52743881 21.062164 7.54723297 20.19604492 7.56762695 C19.08684944 7.58428154 19.08684944 7.58428154 17.95524597 7.60127258 C15.44180949 8.11383011 14.53946891 8.97648051 13 11 C12.58486237 14.0030829 12.58486237 14.0030829 12.70703125 17.41796875 C12.71669922 18.67158203 12.72636719 19.92519531 12.73632812 21.21679688 C12.76146484 22.52712891 12.78660156 23.83746094 12.8125 25.1875 C12.82755033 26.52277163 12.84123813 27.85805937 12.85351562 29.19335938 C12.88892306 32.46264576 12.9383111 35.73112093 13 39 C12.34 38.67 11.68 38.34 11 38 C11 29.09 11 20.18 11 11 C9.68 10.67 8.36 10.34 7 10 C7 9.34 7 8.68 7 8 C6.34 8 5.68 8 5 8 C4.67 8.66 4.34 9.32 4 10 C1.69 9.34 -0.62 8.68 -3 8 C-2.45276317 4.62537285 -1.9451 2.91765 0 0 Z " fill="#fff" transform="translate(210,61)"/>
<path d="M0 0 C-0.350625 0.556875 -0.70125 1.11375 -1.0625 1.6875 C-2.21845993 4.53886783 -1.80967438 6.08517222 -1 9 C-4.75 10.125 -4.75 10.125 -7 9 C-7.99 9.33 -8.98 9.66 -10 10 C-9.67 8.68 -9.34 7.36 -9 6 C-9.66 6 -10.32 6 -11 6 C-10.8125 4.1875 -10.8125 4.1875 -10 2 C-6.42504907 -0.87982158 -4.37380275 -1.37462372 0 0 Z " fill="#fff" transform="translate(222,57)"/>
<path d="M0 0 C3.06398451 -0.13530844 6.12197126 -0.2342407 9.1875 -0.3125 C10.05181641 -0.35439453 10.91613281 -0.39628906 11.80664062 -0.43945312 C18.1457553 -0.5608921 18.1457553 -0.5608921 20.72900391 1.13525391 C22.11328125 2.51953125 22.11328125 2.51953125 24 5 C22.68 5.33 21.36 5.66 20 6 C19.34 5.01 18.68 4.02 18 3 C15.17702376 2.52055164 15.17702376 2.52055164 12 2.625 C10.9275 2.61726563 9.855 2.60953125 8.75 2.6015625 C7.8425 2.73304687 6.935 2.86453125 6 3 C5.01 4.485 5.01 4.485 4 6 C2.62437146 4.71034824 1.29233607 3.37310707 0 2 C0 1.34 0 0.68 0 0 Z " fill="#fff" transform="translate(226,38)"/>
<path d="M0 0 C0.99 0.66 1.98 1.32 3 2 C3 2.66 3 3.32 3 4 C-3.27 4 -9.54 4 -16 4 C-16.33 3.34 -16.66 2.68 -17 2 C-11.39 2 -5.78 2 0 2 C0 1.34 0 0.68 0 0 Z " fill="#fff" transform="translate(254,47)"/>
<path d="M0 0 C-0.35049575 3.24208567 -0.56221181 4.61527704 -3.0625 6.8125 C-3.701875 7.204375 -4.34125 7.59625 -5 8 C-5.99 7.34 -6.98 6.68 -8 6 C-3.375 0 -3.375 0 0 0 Z " fill="#fff" transform="translate(107,102)"/>
<path d="M0 0 C0.33 0.66 0.66 1.32 1 2 C1.66 2 2.32 2 3 2 C2.67 3.32 2.34 4.64 2 6 C1.34 6 0.68 6 0 6 C0 6.66 0 7.32 0 8 C-0.99 8 -1.98 8 -3 8 C-2.45276317 4.62537285 -1.9451 2.91765 0 0 Z " fill="#fff" transform="translate(210,61)"/>
<path d="M0 0 C0.66 0 1.32 0 2 0 C3.28317892 3.84953676 3.06643637 6.94738135 3 11 C2.67 11 2.34 11 2 11 C2 9.02 2 7.04 2 5 C1.34 5 0.68 5 0 5 C-0.33 4.01 -0.66 3.02 -1 2 C-0.67 1.34 -0.34 0.68 0 0 Z " fill="#fff" transform="translate(105,90)"/>
<path d="M0 0 C-0.33 0.99 -0.66 1.98 -1 3 C-3.0625 3.6875 -3.0625 3.6875 -5 4 C-5 3.34 -5 2.68 -5 2 C-5.66 1.34 -6.32 0.68 -7 0 C-4.3333581 -1.33332095 -2.83319697 -0.67102033 0 0 Z " fill="#fff" transform="translate(222,57)"/>
<path d="" fill="#FFFFFF" transform="translate(0,0)"/>
<path d="" fill="#FFFFFF" transform="translate(0,0)"/>
<path d="" fill="#FFFFFF" transform="translate(0,0)"/>
</svg>
